<?xml version="1.0" standalone="no"?>
<!--
  - Copyright (c) 2023 unknowIfGuestInDream
  - All rights reserved.
  -
  - Redistribution and use in source and binary forms, with or without
  - modification, are permitted provided that the following conditions are met:
  -     * Redistributions of source code must retain the above copyright
  - notice, this list of conditions and the following disclaimer.
  -     * Redistributions in binary form must reproduce the above copyright
  - notice, this list of conditions and the following disclaimer in the
  - documentation and/or other materials provided with the distribution.
  -     * Neither the name of unknowIfGuestInDream, any associated website, nor the
  - names of its contributors may be used to endorse or promote products
  - derived from this software without specific prior written permission.
  -
  - THIS SOFTWARE IS PROVIDED BY THE COPYRIGHT HOLDERS AND CONTRIBUTORS "AS IS" AND
  - ANY EXPRESS OR IMPLIED WARRANTIES, INCLUDING, BUT NOT LIMITED TO, THE IMPLIED
  - WARRANTIES OF MERCHANTABILITY AND FITNESS FOR A PARTICULAR PURPOSE ARE
  - DISCLAIMED. IN NO EVENT SHALL UNKNOWIFGUESTINDREAM BE LIABLE FOR ANY
  - DIRECT, INDIRECT, INCIDENTAL, SPECIAL, EXEMPLARY, OR CONSEQUENTIAL DAMAGES
  - (INCLUDING, BUT NOT LIMITED TO, PROCUREMENT OF SUBSTITUTE GOODS OR SERVICES;
  - LOSS OF USE, DATA, OR PROFITS; OR BUSINESS INTERRUPTION) HOWEVER CAUSED AND
  - ON ANY THEORY OF LIABILITY, WHETHER IN CONTRACT, STRICT LIABILITY, OR TORT
  - (INCLUDING NEGLIGENCE OR OTHERWISE) ARISING IN ANY WAY OUT OF THE USE OF THIS
  - SOFTWARE, EVEN IF ADVISED OF THE POSSIBILITY OF SUCH DAMAGE.
  -->

<svg viewBox="0 0 1024 1024" version="1.0" xmlns="http://www.w3.org/2000/svg"
     width="48" height="48">
    <path class="sto"
          d="M616.809412 866.424471a21.684706 21.684706 0 0 1-21.684706 21.684705H421.707294a21.684706 21.684706 0 0 1 0-43.369411H595.124706a21.684706 21.684706 0 0 1 21.684706 21.684706z m-21.684706 32.527058H421.707294a21.684706 21.684706 0 0 0-20.48 28.672c2.831059 9.035294 11.926588 14.637176 21.38353 14.637177h0.361411c12.468706 0 23.913412 7.047529 29.515294 18.251294l0.240942 0.481882a44.574118 44.574118 0 0 0 39.815529 24.576h31.623529a44.574118 44.574118 0 0 0 39.81553-24.576l0.240941-0.481882a33.069176 33.069176 0 0 1 29.515294-18.251294h0.361412c9.456941 0 18.612706-5.601882 21.443765-14.637177a21.684706 21.684706 0 0 0-20.48-28.732235zM508.385882 205.583059a21.684706 21.684706 0 0 0 21.684706-21.624471V97.340235a21.684706 21.684706 0 0 0-43.309176 0v86.738824c0 11.926588 9.697882 21.624471 21.684706 21.62447z m-229.737411 82.522353a21.564235 21.564235 0 0 0 30.659764 0 21.684706 21.684706 0 0 0 0-30.59953L248.048941 196.246588a21.684706 21.684706 0 1 0-30.659765 30.659765l61.259295 61.259294z m-51.802353 199.137882a21.684706 21.684706 0 0 0-21.684706-21.684706H118.482824a21.684706 21.684706 0 0 0 0 43.369412h86.678588a21.684706 21.684706 0 0 0 21.684706-21.684706z m51.802353 199.137882L217.449412 747.700706a21.684706 21.684706 0 1 0 30.659764 30.659765l61.259295-61.259295a21.684706 21.684706 0 1 0-30.659765-30.659764z m459.595294 0a21.684706 21.684706 0 1 0-30.72 30.659765l61.319529 61.259294a21.564235 21.564235 0 0 0 30.659765 0 21.684706 21.684706 0 0 0 0-30.659764l-61.31953-61.259295z m160.165647-220.822588h-86.678588a21.684706 21.684706 0 0 0 0 43.369412h86.678588a21.684706 21.684706 0 0 0 0-43.369412zM722.823529 294.550588a21.564235 21.564235 0 0 0 15.299765-6.384941l61.31953-61.259294a21.684706 21.684706 0 1 0-30.659765-30.659765l-61.259294 61.31953a21.684706 21.684706 0 0 0 15.299764 36.924235z m-106.134588 517.722353a21.684706 21.684706 0 0 1-21.684706 21.684706H421.767529a21.624471 21.624471 0 1 1-1.204705-43.188706c-13.492706-121.916235-139.565176-149.082353-139.565177-292.623059a227.448471 227.448471 0 1 1 454.896941 0c0 143.540706-126.072471 170.706824-139.565176 292.562824 11.384471 0.662588 20.48 9.999059 20.48 21.564235zM458.511059 331.414588a16.263529 16.263529 0 0 0-21.142588-8.914823 190.223059 190.223059 0 0 0-112.278589 128.301176 16.263529 16.263529 0 0 0 31.442824 8.07153 157.575529 157.575529 0 0 1 93.003294-106.255059 16.263529 16.263529 0 0 0 9.035294-21.202824z"
          fill="#f4ea2a"></path>
</svg>
