<?xml version="1.0" standalone="no"?>
<svg viewBox="-10 -10 1024 1024"
      xmlns="http://www.w3.org/2000/svg" width="4800" height="4800">
      <path id="svgLighting" stroke="#000000" stroke-width="2" fill="#f4ea2a" d="M 33.1 49.6 C 34 49.7 34.9 49.3 35.5 48.8 C 36.2 48.2 36.5 47.4 36.5 46.5 V 44.5 C 36.4 42.8 35 41.5 33.1 41.5 C 31.3 41.5 29.8 42.8 29.6 44.5 V 46.5 C 29.6 47.4 30.1 48.2 30.7 48.8 C 31.4 49.3 32.1 49.6 33.1 49.6 z M 5.7 74.5 C 5.7 72.7 4 71.3 2.2 71.3 H -0.1 C -1.4 71.3 -2.6 71.8 -3.2 72.8 C -3.9 73.9 -3.9 75 -3.2 76.1 C -2.6 77.1 -1.4 77.6 -0.1 77.6 h 2.3 C 3.1 77.6 3.9 77.3 4.7 76.6 C 5.2 76.1 5.7 75.2 5.7 74.5 z m 9 -22.6 C 15.6 53.4 17.7 53.8 19.3 53 C 20.2 52.6 20.7 51.9 21 51.1 C 21.2 50.3 21.1 49.4 20.6 48.8 l -1.1 -1.8 C 18.5 45.5 16.4 45 14.8 45.9 C 14 46.2 13.5 47 13.3 47.7 C 12.9 48.6 13.1 49.4 13.6 50.1 l 1.1 1.8 z m 32.1 1.1 c 1.6 0.9 3.7 0.3 4.7 -1.1 l 1.2 -1.8 C 53.1 49.4 53.2 48.6 53 47.7 C 52.8 47 52.1 46.2 51.3 45.9 C 49.7 45 47.7 45.5 46.8 47 l -1.2 1.8 C 45.2 49.4 44.9 50.3 45.2 51.1 C 45.5 51.9 46 52.5 46.8 53 v 0 z m 14.8 10.3 l 2 -1.1 C 64.3 61.7 64.8 61.1 65 60.4 C 65.3 59.5 65.1 58.6 64.7 58 C 63.7 56.5 61.7 56 60 56.8 l -2 1.1 C 57.3 58.3 56.8 59 56.4 59.7 C 56.2 60.6 56.3 61.4 56.9 62.1 C 57.9 63.6 59.9 64 61.5 63.2 v 0 z M 33.1 53.8 C 27.1 53.7 21.3 55.9 17.1 59.7 C 12.7 63.7 10.3 68.9 10.2 74.5 C 10.3 81 13.7 87.1 19.4 91 v 6.2 C 19.4 98.3 19.9 99.3 20.7 100.1 C 21.6 100.8 22.8 101.3 24 101.3 H 42.2 C 44.7 101.3 46.8 99.5 46.8 97.2 v -6.2 C 52.5 87.1 55.9 81 56 74.5 c -0.2 -11.6 -10.4 -20.8 -22.9 -20.7 z m 33.2 17.6 h -2.3 C 62.7 71.3 61.5 71.9 60.9 72.9 C 60.2 73.9 60.2 75.1 60.9 76.1 C 61.5 77.1 62.7 77.7 63.9 77.6 h 2.3 C 68.1 77.6 69.6 76.2 69.6 74.5 C 69.6 72.8 68.1 71.4 66.2 71.4 v 0 z m -61.6 14.4 l -2 1.1 C 1.9 87.2 1.3 87.9 1.1 88.6 C 0.9 89.5 1 90.4 1.4 91 C 2.4 92.5 4.5 93 6.2 92.2 l 2 -1.1 C 8.9 90.7 9.5 90 9.7 89.2 C 9.9 88.4 9.8 87.6 9.4 86.8 C 8.4 85.4 6.3 84.9 4.7 85.7 v 0 z m 58.8 1 l -2 -1.1 C 59.9 84.9 57.9 85.3 56.9 86.8 C 56.3 87.6 56.2 88.4 56.4 89.2 C 56.8 90 57.3 90.7 58.1 91.1 l 2 1.1 c 1.6 0.9 3.7 0.3 4.7 -1.1 C 65.1 90.2 65.3 89.4 65.1 88.6 C 64.8 87.8 64.3 87.1 63.5 86.7 v 0 z M 41 105.5 h -16 C 23.9 105.5 22.8 106.3 22.8 107.5 v 2 C 22.8 110.7 23.2 111.8 24.1 112.5 C 25 113.3 26.2 113.7 27.4 113.7 h 11.4 C 40 113.7 41.1 113.3 42 112.5 C 42.9 111.8 43.3 110.7 43.4 109.5 v -2 c 0 -1.2 -1.1 -2.1 -2.3 -2 v 0 z M 8 57.8 l -2 -1.1 C 4.5 56 2.4 56.4 1.4 57.9 C 1 58.6 0.9 59.5 1.1 60.2 C 1.3 61.1 1.9 61.7 2.7 62.2 l 2 1.1 c 1.6 0.9 3.7 0.3 4.7 -1.1 C 9.8 61.3 9.9 60.5 9.7 59.7 C 9.5 58.9 8.9 58.2 8 57.8 v 0 z" />
      <path id="svgBase" fill="#5a626a" d="M 30.3 63.5 C 30.2 63.5 30 63.6 29.9 63.7 C 29.8 63.8 29.7 64 29.7 64.1 l 0 2.9 C 29 67.4 28.4 67.8 27.7 68.2 l -2.4 -1.4 C 25 66.6 24.6 66.7 24.5 67 l -3.2 5.9 C 20.9 73.2 21 73.6 21.3 73.9 l 2.4 1.4 C 23.7 76 23.7 76.8 23.8 77.5 l -2.4 1.4 C 21.1 79.3 21 79.6 21.1 79.9 l 0 0.1 l 3.2 5.9 C 24.6 86.2 25 86.3 25.3 86.1 l 2.4 -1.4 C 28.4 85.1 29 85.5 29.7 85.8 l 0 2.9 C 29.7 89.1 30 89.4 30.3 89.4 l 6.6 0 C 37.3 89.4 37.6 89.1 37.6 88.6 l 0 -2.9 C 38.3 85.5 39 85.1 39.5 84.7 l 2.4 1.4 C 42.2 86.3 42.6 86.2 42.9 85.8 l 3.2 -5.9 C 46.3 79.7 46.2 79.3 46 79 l -0.1 0 l -2.4 -1.4 C 43.5 76.8 43.5 76 43.5 75.3 l 2.4 -1.4 C 46.2 73.6 46.3 73.3 46.2 73 l 0 -0.1 l -3.2 -5.9 C 42.6 66.7 42.2 66.6 42 66.7 l -2.4 1.4 C 39 67.7 38.3 67.4 37.6 67 l 0 -2.9 C 37.6 64 37.6 63.8 37.4 63.7 C 37.2 63.6 37.1 63.5 36.9 63.5 l -6.6 0 l 0 0 z m 1.3 2.1 l 4 0 l 0 2.9 l 1.2 0.5 c 0.5 0.2 1.1 0.5 1.5 0.9 l 1.1 0.8 l 2.4 -1.4 l 1.9 3.6 l -2.4 1.4 l 0.1 1.3 C 41.6 76.1 41.6 76.8 41.6 77.3 l -0.1 1.3 l 2.4 1.4 l -1.9 3.6 l -2.4 -1.4 l -1.1 0.8 c -0.4 0.3 -1 0.6 -1.5 0.9 l -1.2 0.5 l 0 2.9 l -4 0 l 0 -2.9 l -1.2 -0.5 c -0.5 -0.2 -1.1 -0.5 -1.5 -0.9 l -1.1 -0.8 l -2.4 1.4 l -1.9 -3.6 l 2.4 -1.4 l -0.1 -1.3 C 25.7 76.8 25.7 76.1 25.8 75.5 l 0.1 -1.3 l -2.4 -1.4 l 1.9 -3.6 l 2.4 1.4 l 1.1 -0.8 C 29.4 69.5 30 69.2 30.5 68.9 l 1.2 -0.5 l 0 -2.9 l 0 0 z m 1.9 6.2 C 31.1 71.7 29 73.7 29 76.4 C 29 79 31.1 81.2 33.7 81.2 C 36.1 81.2 38.2 79 38.2 76.4 C 38.2 73.7 36.1 71.7 33.7 71.7 z m 0 2.1 C 34.6 73.6 35.5 74.2 36 75 C 36.5 75.9 36.5 77 36 77.8 C 35.5 78.7 34.6 79.1 33.7 79.1 C 32.3 79 31.1 77.8 31.1 76.4 C 31.1 74.9 32.3 73.7 33.7 73.7 z"/>
</svg>
