<?xml version="1.0" standalone="no"?>
<!--
  - Copyright (c) 2023 unknowIfGuestInDream
  - All rights reserved.
  -
  - Redistribution and use in source and binary forms, with or without
  - modification, are permitted provided that the following conditions are met:
  -     * Redistributions of source code must retain the above copyright
  - notice, this list of conditions and the following disclaimer.
  -     * Redistributions in binary form must reproduce the above copyright
  - notice, this list of conditions and the following disclaimer in the
  - documentation and/or other materials provided with the distribution.
  -     * Neither the name of unknowIfGuestInDream, any associated website, nor the
  - names of its contributors may be used to endorse or promote products
  - derived from this software without specific prior written permission.
  -
  - THIS SOFTWARE IS PROVIDED BY THE COPYRIGHT HOLDERS AND CONTRIBUTORS "AS IS" AND
  - ANY EXPRESS OR IMPLIED WARRANTIES, INCLUDING, BUT NOT LIMITED TO, THE IMPLIED
  - WARRANTIES OF MERCHANTABILITY AND FITNESS FOR A PARTICULAR PURPOSE ARE
  - DISCLAIMED. IN NO EVENT SHALL UNKNOWIFGUESTINDREAM BE LIABLE FOR ANY
  - DIRECT, INDIRECT, INCIDENTAL, SPECIAL, EXEMPLARY, OR CONSEQUENTIAL DAMAGES
  - (INCLUDING, BUT NOT LIMITED TO, PROCUREMENT OF SUBSTITUTE GOODS OR SERVICES;
  - LOSS OF USE, DATA, OR PROFITS; OR BUSINESS INTERRUPTION) HOWEVER CAUSED AND
  - ON ANY THEORY OF LIABILITY, WHETHER IN CONTRACT, STRICT LIABILITY, OR TORT
  - (INCLUDING NEGLIGENCE OR OTHERWISE) ARISING IN ANY WAY OUT OF THE USE OF THIS
  - SOFTWARE, EVEN IF ADVISED OF THE POSSIBILITY OF SUCH DAMAGE.
  -->

<svg viewBox="0 0 1024 1024"
     xmlns="http://www.w3.org/2000/svg" width="48" height="48">
    <path stroke="#000000" stroke-width="4" fill="#f4ea2a"
          d="M 510.9 118 C 522.7 118.2 534.1 113.6 542.5 105.4 C 550.9 97.1 555.7 85.8 555.7 74 V 44.8 C 554.6 20.9 534.9 2.1 511 2.1 C 487 2.1 467.3 20.9 466.2 44.8 V 74 C 466.3 85.8 471.1 97 479.5 105.3 C 487.9 113.5 499.2 118.1 511 118 z M 151.5 468.6 C 151.1 443.9 130.8 424.2 106.1 424.5 H 76.1 C 59.7 423.4 44 431.5 35.5 445.6 C 26.9 459.7 26.9 477.3 35.5 491.4 C 44 505.5 59.7 513.6 76.1 512.5 h 30 C 118 512.8 129.5 508.3 138.1 500.1 C 146.6 491.8 151.5 480.4 151.5 468.5 z m 118.3 -319.7 C 282.6 170 309.8 177 331.2 164.8 C 341.4 159.1 348.9 149.6 351.9 138.3 C 354.9 127 353.2 115 347.2 105 l -14.7 -25.1 C 319.9 58.7 292.5 51.6 271.1 64 C 260.9 69.7 253.5 79.2 250.5 90.5 C 247.4 101.8 249.1 113.8 255.1 123.8 l 14.7 25.1 z m 420.7 15.9 c 21.4 12.2 48.6 5.2 61.4 -15.9 l 15.3 -25.1 C 773.1 113.7 774.7 101.7 771.5 90.4 C 768.4 79.1 760.9 69.6 750.6 64 C 729.4 51.8 702.3 58.9 689.8 79.9 l -15.3 25.1 C 668.5 115 666.8 127 669.9 138.2 C 672.9 149.5 680.3 159 690.5 164.7 v 0.2 z m 193.1 144.8 l 25.6 -14.8 C 919.5 289.2 927.1 279.7 930.1 268.3 C 933.1 257 931.4 245 925.2 235 C 912.5 213.8 885.2 206.7 863.8 219.1 l -25.6 14.8 C 828 239.6 820.6 249.1 817.6 260.4 C 814.5 271.7 816.2 283.7 822.2 293.7 C 835.3 314.3 862.2 321.2 883.6 309.4 v 0.2 z M 510.9 176.5 C 432.5 175.6 356.9 205.8 300.8 260.7 C 244.6 315.5 212.6 390.4 211.7 468.8 C 212 561.5 256.7 648.4 331.9 702.6 v 87.5 C 332 805.8 338.3 820.7 349.5 831.7 C 360.7 842.7 375.8 848.7 391.4 848.5 H 631.1 C 663.6 848.7 690.2 822.6 690.6 790.1 v -87.5 C 765.8 648.4 810.5 561.5 810.8 468.8 c -2.4 -163.4 -136.5 -294 -299.9 -292.3 z m 434.8 248.7 h -30.1 C 899.4 424.4 884 432.6 875.7 446.6 C 867.3 460.5 867.3 478 875.7 491.9 C 884 505.9 899.4 514.1 915.6 513.3 h 30 C 970 513.3 989.7 493.6 989.7 469.2 C 989.7 444.8 970 425.1 945.6 425.1 v 0.2 z m -807.6 203.2 l -25.6 14.8 C 102.2 648.8 94.7 658.3 91.6 669.7 C 88.6 681 90.4 693 96.5 703 C 109.2 724.2 136.5 731.3 157.9 718.9 l 25.6 -14.9 C 193.7 698.3 201.2 688.8 204.2 677.5 C 207.2 666.2 205.5 654.2 199.5 644.2 C 186.8 623.1 159.5 616 138.1 628.2 v 0.2 z m 771.1 14.3 l -25.6 -14.8 C 862.2 615.7 835 622.7 822.2 643.8 C 816.2 653.8 814.5 665.8 817.6 677.1 C 820.6 688.4 828 697.9 838.2 703.6 l 25.6 14.9 c 21.4 12.4 48.7 5.3 61.4 -15.9 C 931.4 692.6 933.2 680.5 930.2 669.1 C 927.2 657.8 919.6 648.2 909.2 642.6 v 0.2 z M 615.7 907.3 h -209.7 C 389.7 907.1 376.2 920.1 375.9 936.4 v 29.1 C 376.1 981.3 382.6 996.3 393.9 1007.3 C 405.2 1018.2 420.4 1024.3 436.1 1024 h 149.6 C 601.4 1024.2 616.6 1018.2 627.9 1007.3 C 639.2 996.3 645.6 981.3 645.8 965.6 v -29.1 c -0.2 -16.4 -13.7 -29.5 -30 -29.4 v 0.2 z M 183.5 233.3 l -25.6 -14.8 C 136.5 206.1 109.2 213.2 96.5 234.4 C 90.4 244.4 88.6 256.4 91.6 267.7 C 94.7 279.1 102.2 288.6 112.5 294.2 l 25.6 14.8 c 21.4 12.3 48.6 5.2 61.4 -15.9 C 205.6 283.1 207.3 271 204.3 259.7 C 201.3 248.4 193.8 238.8 183.5 233.1 v 0.2 z"/>
    <path fill="#5a626a"
          d="M 474.2 293.5 C 471.7 293.5 469.4 294.5 467.7 296.3 C 466 298 465.1 300.4 465.1 302.8 l 0 39.6 C 455.7 346.6 446.9 351.9 438.7 358.1 l -33.4 -19.8 C 400.9 335.8 395.4 337.3 392.9 341.7 l -45.4 80.7 C 344.9 426.9 346.4 432.6 350.8 435.1 l 33.4 19.8 C 383 465.3 383 475.8 384.2 486.2 l -33.4 19.8 C 346.8 508.4 345.2 513.4 347 517.7 l 0.5 1 l 45.4 80.7 C 395.4 603.9 400.9 605.4 405.3 602.8 l 33.4 -19.8 C 446.9 589.2 455.7 594.5 465.1 598.6 l 0 39.6 C 465.1 643.4 469.1 647.5 474.2 647.5 l 90.8 0 C 570 647.5 574.1 643.4 574.1 638.2 l 0 -39.6 C 583.4 594.4 592.3 589.2 600.5 582.9 l 33.4 19.8 C 638.2 605.3 643.7 603.8 646.3 599.3 l 45.4 -80.7 C 694 514.6 692.9 509.4 689.3 506.5 l -0.9 -0.6 l -33.4 -19.8 C 656.1 475.7 656.1 465.2 655 454.8 l 33.4 -19.8 C 692.3 432.7 694 427.7 692.2 423.3 l -0.5 -1 l -45.4 -80.7 C 643.7 337.2 638.2 335.7 633.9 338.2 l -33.4 19.8 C 592.3 351.8 583.4 346.6 574.1 342.4 l 0 -39.6 C 574.1 300.4 573.1 298 571.4 296.3 C 569.7 294.5 567.4 293.5 565 293.5 l -90.8 0 l 0 0 z m 18.2 27.9 l 54.5 0 l 0 39.2 l 16.4 7.3 c 7.5 3.4 14.6 7.6 21.1 12.5 l 14.4 10.9 l 33.2 -19.6 l 27.3 48.4 l -33.1 19.6 l 2 18.2 C 629.1 466.3 629.1 474.7 628.2 483 l -2 18.2 l 33.1 19.6 l -27.3 48.4 l -33.2 -19.6 l -14.4 10.9 c -6.6 5 -13.6 9.2 -21.1 12.5 l -16.4 7.3 l 0 39.2 l -54.5 0 l 0 -39.2 l -16.3 -7.3 c -7.5 -3.4 -14.6 -7.6 -21.1 -12.5 l -14.4 -10.9 l -33.2 19.6 l -27.3 -48.4 l 33.1 -19.6 l -2 -18.2 C 410.3 474.7 410.3 466.3 411.2 457.9 l 2 -18.2 l -33.1 -19.6 l 27.3 -48.4 l 33.2 19.6 l 14.4 -10.9 C 461.5 375.5 468.6 371.3 476.1 367.9 l 16.4 -7.3 l 0 -39.2 l 0 0 z m 26.8 83.8 C 484 405.2 455.6 434.4 455.6 470.4 C 455.6 506.4 484 535.6 519.2 535.6 C 554.3 535.6 582.8 506.4 582.8 470.4 C 582.8 434.4 554.3 405.2 519.2 405.2 z m 0 27.9 C 532.6 432.4 545.3 439.4 552.2 451.2 C 559.1 463 559.1 477.8 552.2 489.6 C 545.3 501.4 532.6 508.3 519.2 507.6 C 499.9 506.6 484.7 490.2 484.7 470.4 C 484.7 450.5 499.9 434.2 519.2 433.1 z"/>
</svg>
