<?xml version="1.0" encoding="UTF-8"?>
<!--
  - Copyright (c) 2023 unknowIfGuestInDream
  - All rights reserved.
  -
  - Redistribution and use in source and binary forms, with or without
  - modification, are permitted provided that the following conditions are met:
  -     * Redistributions of source code must retain the above copyright
  - notice, this list of conditions and the following disclaimer.
  -     * Redistributions in binary form must reproduce the above copyright
  - notice, this list of conditions and the following disclaimer in the
  - documentation and/or other materials provided with the distribution.
  -     * Neither the name of unknowIfGuestInDream, any associated website, nor the
  - names of its contributors may be used to endorse or promote products
  - derived from this software without specific prior written permission.
  -
  - THIS SOFTWARE IS PROVIDED BY THE COPYRIGHT HOLDERS AND CONTRIBUTORS "AS IS" AND
  - ANY EXPRESS OR IMPLIED WARRANTIES, INCLUDING, BUT NOT LIMITED TO, THE IMPLIED
  - WARRANTIES OF MERCHANTABILITY AND FITNESS FOR A PARTICULAR PURPOSE ARE
  - DISCLAIMED. IN NO EVENT SHALL UNKNOWIFGUESTINDREAM BE LIABLE FOR ANY
  - DIRECT, INDIRECT, INCIDENTAL, SPECIAL, EXEMPLARY, OR CONSEQUENTIAL DAMAGES
  - (INCLUDING, BUT NOT LIMITED TO, PROCUREMENT OF SUBSTITUTE GOODS OR SERVICES;
  - LOSS OF USE, DATA, OR PROFITS; OR BUSINESS INTERRUPTION) HOWEVER CAUSED AND
  - ON ANY THEORY OF LIABILITY, WHETHER IN CONTRACT, STRICT LIABILITY, OR TORT
  - (INCLUDING NEGLIGENCE OR OTHERWISE) ARISING IN ANY WAY OUT OF THE USE OF THIS
  - SOFTWARE, EVEN IF ADVISED OF THE POSSIBILITY OF SUCH DAMAGE.
  -->

<svg xmlns="http://www.w3.org/2000/svg" viewBox="0 0 359.73 356.79">
    <path id="svgLighting" fill="#ffff00"
          d="M180.54,64.69c-28.6-.5-56.3,10.2-76.4,28.8-21,19.5-32.5,44.8-32.9,72.1,.5,31.7,16.7,61.4,43.9,80.3v30.2c0,5.4,2.3,10.2,6.2,14.1,4.3,3.4,10,5.8,15.8,5.8h86.9c11.9,0,22-8.7,22-19.9v-30.2c27.2-19,43.5-48.7,43.9-80.3-.9-56.7-49.7-101.4-109.4-100.9Zm37.8,251.7h-76.4c-5.3,0-10.5,3.9-10.5,9.8v9.8c0,5.8,1.9,11.2,6.2,14.6,4.3,3.9,10,5.8,15.8,5.8h54.4c5.7,0,11-2,15.3-5.8,4.3-3.4,6.2-8.7,6.7-14.6v-9.8c0-5.8-5.3-10.2-11-9.8h-.5Z"/>
    <path id="svgBase" fill="#beb49a"
          d="M167.24,111.79c-.5,0-1.4,.5-1.9,.9s-.9,1.5-.9,2v14.1c-3.4,2-6.2,3.9-9.6,5.8l-11.4-6.9c-1.4-.9-3.4-.5-3.9,.9l-15.3,28.8c-1.9,1.5-1.4,3.4,0,4.9l11.4,6.9c0,3.4,0,7.3,.5,10.7l-11.4,6.9c-1.4,2-1.9,3.4-1.4,4.9v.5l15.3,28.8c1.4,1.5,3.4,2,4.8,.9l11.4-6.9c3.4,2,6.2,3.9,9.6,5.4v14.1c0,2,1.4,3.4,2.9,3.4h31.5c1.9,0,3.4-1.5,3.4-3.9v-14c3.4-.9,6.7-2.9,9.1-4.9l11.4,6.9c1.4,.9,3.4,.5,4.8-1.5l15.3-28.8c.9-.9,.5-2.9-.5-4.4h-.4l-11.4-6.9v-11.2l11.4-6.9c1.4-1.5,1.9-2.9,1.4-4.4v-.5l-15.3-28.8c-1.9-1.5-3.9-2-4.8-1.5l-11.4,6.9c-2.9-2-6.2-3.4-9.6-5.4v-14.1c0-.5,0-1.5-.9-2s-1.4-.9-2.3-.9h-31.6l-.2,.2Zm6.2,10.3h19.2v14.1l5.7,2.4c2.3,.9,5.3,2.4,7.1,4.4l5.3,3.9,11.5-6.9,9.1,17.6-11.4,6.9,.5,6.3c.9,2.4,.9,5.8,.9,8.3l-.5,6.3,11.4,6.9-9.1,17.6-11.4-6.9-5.3,3.9c-1.9,1.5-4.8,2.9-7.1,4.4l-5.7,2.4v14.1h-19.2v-14.1l-5.7-2.4c-2.3-.9-5.3-2.4-7.1-4.4l-5.3-3.9-11.4,6.9-9.1-17.6,11.4-6.9-.5-6.3c-1.4-2.4-1.4-5.8-.9-8.7l.5-6.3-11.4-6.9,9.1-17.6,11.4,6.9,5.3-3.9c2.3-1.5,5.3-2.9,7.6-4.4l5.7-2.4v-14.1h0l-.6,.4Zm9.1,30.1c-11.4-.5-21.5,9.2-21.5,22.4s10,23.4,22.4,23.4c11.4,0,21.5-10.7,21.5-23.4s-10-22.9-21.5-22.9l-.9,.5Zm0,10.3c5.3-1.5,9.6,1.5,11.9,5.4,2.3,4.4,2.3,9.8,0,13.6-2.3,4.4-6.7,6.3-11,6.3-6.7-.5-12.4-6.3-12.4-13.2,0-7.3,5.7-13.2,12.4-13.2l-.9,1.1Z"/>
    <path id="svgOutline" fill="#000000"
          d="M207.84,356.79h-54.4c-6.2,0-12-2.1-16.1-5.9-4.1-3.3-6.4-8.6-6.4-15v-9.8c0-6.3,5.7-10.3,11-10.3h76.9c3-.2,5.9,.8,8.2,2.8,2.2,2,3.4,4.6,3.4,7.4v9.8h0c-.6,6.7-2.9,11.8-6.9,15-4.4,4-9.8,6-15.7,6Zm-65.9-39.9c-4.8,0-10,3.5-10,9.3v9.8c0,6.1,2.1,11.2,6,14.3h0c4,3.7,9.5,5.7,15.4,5.7h54.4c5.6,0,10.8-2,14.9-5.7h0c3.8-3,6-7.8,6.5-14.3v-9.7c0-2.6-1.1-5-3.1-6.7-2-1.8-4.7-2.7-7.4-2.6h0l-76.7-.1h0Zm82.1-20.4h-86.9c-5.5,0-11.4-2.2-16.1-5.9h0c-4.2-4.2-6.4-9.2-6.4-14.5v-30c-6.7-4.7-12.8-10-18.1-16-5.3-5.9-10-12.5-13.8-19.4s-6.7-14.3-8.7-21.8c-2-7.6-3.1-15.5-3.3-23.4h0c.2-13.7,3.2-26.8,8.8-39.2,5.6-12.3,13.8-23.5,24.3-33.3,19.9-18.4,47.1-28.9,74.8-28.9h2c14.7-.1,28.9,2.4,42.3,7.6,13,5,24.7,12.3,34.7,21.5,10.1,9.3,18.1,20.1,23.7,32.3,5.8,12.6,8.9,26,9.2,39.9h0c-.1,7.8-1.2,15.7-3.2,23.3-2,7.5-5,14.8-8.8,21.8-3.8,6.9-8.4,13.4-13.8,19.4s-11.5,11.4-18.2,16.1v30c0,5.5-2.4,10.7-6.7,14.5-4.2,3.9-9.8,6-15.8,6Zm-102.3-6.7c4.5,3.6,10.1,5.7,15.4,5.7h86.9c5.7,0,11.1-2,15.1-5.6,4.1-3.7,6.4-8.6,6.4-13.8v-30.5l.2-.1c6.7-4.7,12.8-10.1,18.2-16.1,5.3-5.9,9.9-12.4,13.7-19.2,3.8-6.9,6.7-14.1,8.7-21.6s3.1-15.3,3.2-23.1c-.2-13.8-3.3-27.1-9.1-39.5-5.6-12-13.5-22.8-23.5-32s-21.6-16.4-34.4-21.3c-13.3-5.1-27.4-7.7-42-7.5h0c-28.1-.5-55.9,9.9-76.1,28.6-10.4,9.7-18.5,20.8-24.1,33s-8.5,25.2-8.7,38.8c.1,7.8,1.2,15.6,3.2,23.1s4.9,14.7,8.7,21.6,8.3,13.3,13.6,19.2c5.4,6,11.5,11.3,18.2,16l.2,.1v30.5c.1,5,2.2,9.6,6.2,13.7Z"/>
    <path id="svgRay" fill="#ffff00" stroke="#ff8c00" stroke-width="2" stroke-miterlimit="18"
          d="M325.74,225.39l-9.6-5.4c-7.6-3.9-17.2-2-22,5.4-2.9,3.9-3.4,7.8-2.3,11.6,1.9,3.9,4.3,7.3,8.2,9.2l9.6,5.4c7.6,4.4,17.6,1.5,22.4-5.4,1.4-4.4,2.3-8.3,1.4-12.2-1.4-3.9-3.9-7.3-7.6-9.2h0v.6h-.1ZM180.54,44.19c4.3,.5,8.6-1.5,11.4-3.9,3.4-2.9,4.8-6.9,4.8-11.2v-9.8c-.5-8.3-7.1-14.6-16.2-14.6-8.6,0-15.8,6.3-16.7,14.6v9.8c0,4.4,2.3,8.3,5.3,11.2,3.4,2.5,6.6,3.9,11.4,3.9ZM49.74,165.39c0-8.7-8.2-15.6-16.7-15.6h-11c-6.2,0-11.9,2.4-14.8,7.3-3.4,5.4-3.4,10.7,0,16.1,2.9,4.9,8.6,7.3,14.8,7.3h11c4.3,0,8.2-1.5,11.9-4.9,2.3-2.4,4.8-6.7,4.8-10.2ZM92.74,55.39c4.3,7.3,14.4,9.2,22,5.4,4.3-2,6.7-5.4,8.2-9.2,.9-3.9,.5-8.3-1.9-11.2l-5.3-8.7c-4.8-7.3-14.8-9.8-22.4-5.4-3.9,1.5-6.2,5.4-7.1,8.7-1.9,4.4-.9,8.3,1.4,11.6l5.1,8.8h0Zm153.3,5.3c7.6,4.4,17.6,1.5,22.4-5.4l5.7-8.7c1.9-3.4,2.3-7.3,1.4-11.6-.9-3.4-4.3-7.3-8.2-8.7-7.6-4.4-17.2-2-21.5,5.4l-5.7,8.7c-1.9,2.9-3.4,7.3-1.9,11.2,1.4,3.9,4,6.8,7.8,9.1h0Zm70.7,50.2l9.6-5.4c3.4-2.4,5.7-5.4,6.7-8.7,1.4-4.4,.5-8.7-1.4-11.6-4.8-7.3-14.4-9.8-22.4-5.8l-9.6,5.4c-3.4,2-5.7,5.4-7.6,8.7-.9,4.4-.5,8.3,2.3,11.6,4.8,7.3,14.4,9.2,22,5.4h0l.4,.4Zm22.5,39.5h-11c-6.2-.5-11.9,2.4-14.8,7.3-3.4,4.9-3.4,10.7,0,15.6,2.9,4.9,8.6,7.8,14.4,7.3h11c9.1,0,16.2-6.9,16.2-15.1s-7.1-15.1-16.2-15.1h.4ZM44.94,220.49l-9.6,5.4c-3.9,1.5-6.7,4.9-7.6,8.3-.9,4.4-.5,8.7,1.4,11.6,4.8,7.3,14.8,9.8,22.9,5.8l9.6-5.4c3.4-2,6.2-5.4,7.1-9.2,.9-3.8,.5-7.8-1.4-11.6-4.8-6.9-14.8-9.2-22.4-5.4h0v.5Zm15.8-136.4l-9.6-5.4c-7.1-3.4-17.2-1.5-22,5.8-1.9,3.4-2.3,7.8-1.4,11.2,.9,4.4,3.9,7.3,7.6,9.8l9.6,5.4c7.6,4.4,17.6,1.5,22.4-5.4,1.9-4.4,2.3-8.3,1.4-12.2-.9-3.8-3.7-7.2-8-9.2h0Z"/>
</svg>
