<svg xmlns="http://www.w3.org/2000/svg" viewBox="0 0 90 90"><path id="svgLighting" fill="#ffff40" d="M44.6,17.7c-6.6-0.1-13,2.3-17.7,6.6c-4.9,4.5-7.5,10.3-7.6,16.6	c0.1,7.3,3.9,14.1,10.2,18.5v7c0,1.2,0.5,2.3,1.4,3.2c1,0.8,2.3,1.3,3.7,1.3h20.1c2.8,0,5.1-2,5.1-4.6v-7	c6.3-4.4,10.1-11.2,10.2-18.5C69.7,27.9,58.4,17.6,44.6,17.7L44.6,17.7z M53.4,75.7H35.7c-1.2,0-2.4,0.9-2.4,2.3v2.3	c0,1.3,0.4,2.6,1.4,3.4c1,0.9,2.3,1.3,3.7,1.3H51c1.3,0,2.5-0.5,3.5-1.3s1.4-2,1.6-3.4V78c0-1.3-1.2-2.3-2.5-2.3H53.4z"/><path id="svgOutline" stroke="#000" stroke-miterlimit="10" stroke-width=".5" d="M50.9,85H38.3c-1.4,0-2.8-0.5-3.7-1.4	c-0.9-0.8-1.5-2-1.5-3.5v-2.3c0-1.5,1.3-2.4,2.5-2.4h17.8c0.7,0,1.4,0.2,1.9,0.6c0.5,0.5,0.8,1.1,0.8,1.7V80l0,0	c-0.1,1.5-0.7,2.7-1.6,3.5C53.6,84.5,52.3,85,50.9,85z M35.7,75.8c-1.1,0-2.3,0.8-2.3,2.1v2.3c0,1.4,0.5,2.6,1.4,3.3l0,0	c0.9,0.9,2.2,1.3,3.6,1.3H51c1.3,0,2.5-0.5,3.4-1.3l0,0c0.9-0.7,1.4-1.8,1.5-3.3V78c0-0.6-0.3-1.2-0.7-1.5c-0.5-0.4-1.1-0.6-1.7-0.6	l0,0L35.7,75.8L35.7,75.8L35.7,75.8z M54.7,71.1H34.6c-1.3,0-2.6-0.5-3.7-1.4l0,0c-1-1-1.5-2.1-1.5-3.3v-6.9c-1.6-1.1-3-2.3-4.2-3.7	s-2.3-2.9-3.2-4.5s-1.6-3.3-2-5c-0.5-1.8-0.7-3.6-0.8-5.4l0,0c0-3.2,0.7-6.2,2-9s3.2-5.4,5.6-7.7c4.6-4.2,10.9-6.7,17.3-6.7h0.5	c3.4,0,6.7,0.6,9.8,1.8c3,1.2,5.7,2.8,8,5c2.3,2.1,4.2,4.6,5.5,7.4c1.3,2.9,2.1,6,2.1,9.2l0,0c0,1.8-0.3,3.6-0.7,5.4	c-0.5,1.7-1.2,3.4-2,5c-0.9,1.6-1.9,3.1-3.2,4.5s-2.7,2.6-4.2,3.7v6.9c0,1.3-0.6,2.5-1.6,3.3C57.4,70.6,56.1,71.1,54.7,71.1	L54.7,71.1z M31,69.6c1,0.8,2.3,1.3,3.6,1.3h20.1c1.3,0,2.6-0.5,3.5-1.3c0.9-0.9,1.5-2,1.5-3.2v-7l0,0c1.6-1.1,3-2.3,4.2-3.7	s2.3-2.9,3.2-4.4c0.9-1.6,1.6-3.2,2-5c0.5-1.7,0.7-3.5,0.7-5.3c0-3.2-0.8-6.2-2.1-9.1c-1.3-2.8-3.1-5.3-5.4-7.4	c-2.3-2.1-5-3.8-8-4.9c-3.1-1.2-6.3-1.8-9.7-1.7l0,0c-6.5-0.1-12.9,2.3-17.6,6.6c-2.4,2.2-4.3,4.8-5.6,7.6s-2,5.8-2,8.9	c0,1.8,0.3,3.6,0.7,5.3c0.5,1.7,1.1,3.4,2,5s1.9,3.1,3.1,4.4c1.2,1.4,2.7,2.6,4.2,3.7l0,0v7C29.6,67.6,30.1,68.6,31,69.6L31,69.6z"/><path id="svgRay" fill="#ff0" stroke="#ff8c00" stroke-miterlimit="18" stroke-width=".5" d="M78.2,54.7L76,53.5	c-1.8-0.9-4-0.5-5.1,1.2c-0.7,0.9-0.8,1.8-0.5,2.7c0.4,0.9,1,1.7,1.9,2.1l2.2,1.2c1.8,1,4.1,0.3,5.2-1.2c0.3-1,0.5-1.9,0.3-2.8	C79.7,55.8,79.1,55,78.2,54.7L78.2,54.7L78.2,54.7L78.2,54.7L78.2,54.7z M44.6,13c1,0.1,2-0.3,2.6-0.9c0.8-0.7,1.1-1.6,1.1-2.6V7.3	c-0.1-1.9-1.6-3.4-3.7-3.4c-2,0-3.7,1.5-3.9,3.4v2.3c0,1,0.5,1.9,1.2,2.6C42.8,12.7,43.5,13,44.6,13z M14.3,40.9	c0-2-1.9-3.6-3.9-3.6H7.9c-1.4,0-2.8,0.6-3.4,1.7c-0.8,1.2-0.8,2.5,0,3.7c0.7,1.1,2,1.7,3.4,1.7h2.5c1,0,1.9-0.3,2.8-1.1	C13.8,42.7,14.3,41.7,14.3,40.9L14.3,40.9z M24.3,15.6c1,1.7,3.3,2.1,5.1,1.2c1-0.5,1.6-1.2,1.9-2.1c0.2-0.9,0.1-1.9-0.4-2.6l-1.2-2	c-1.1-1.7-3.4-2.3-5.2-1.2c-0.9,0.3-1.4,1.2-1.6,2c-0.4,1-0.2,1.9,0.3,2.7L24.3,15.6L24.3,15.6z M59.8,16.8c1.8,1,4.1,0.3,5.2-1.2	l1.3-2c0.4-0.8,0.5-1.7,0.3-2.7c-0.2-0.8-1-1.7-1.9-2c-1.8-1-4-0.5-5,1.2l-1.3,2c-0.4,0.7-0.8,1.7-0.4,2.6	C58.3,15.6,58.9,16.3,59.8,16.8L59.8,16.8z M76.1,28.4l2.2-1.2c0.8-0.6,1.3-1.2,1.6-2c0.3-1,0.1-2-0.3-2.7c-1.1-1.7-3.3-2.3-5.2-1.3	l-2.2,1.2c-0.8,0.5-1.3,1.2-1.8,2c-0.2,1-0.1,1.9,0.5,2.7C72.1,28.7,74.3,29.2,76.1,28.4L76.1,28.4L76.1,28.4z M81.4,37.5h-2.5	c-1.4-0.1-2.8,0.6-3.4,1.7c-0.8,1.1-0.8,2.5,0,3.6c0.7,1.1,2,1.8,3.3,1.7h2.5c2.1,0,3.7-1.6,3.7-3.5S83.4,37.5,81.4,37.5L81.4,37.5z M13.2,53.6L11,54.9c-0.9,0.3-1.6,1.1-1.8,1.9c-0.2,1-0.1,2,0.3,2.7c1.1,1.7,3.4,2.3,5.3,1.3l2.2-1.2c0.8-0.5,1.4-1.2,1.6-2.1	c0.2-0.9,0.1-1.8-0.3-2.7C17.2,53.2,14.9,52.7,13.2,53.6L13.2,53.6L13.2,53.6L13.2,53.6z M16.9,22.2L14.7,21c-1.6-0.8-4-0.3-5.1,1.3	c-0.4,0.8-0.5,1.8-0.3,2.6c0.2,1,0.9,1.7,1.8,2.3l2.2,1.2c1.8,1,4.1,0.3,5.2-1.2c0.4-1,0.5-1.9,0.3-2.8	C18.5,23.4,17.9,22.7,16.9,22.2L16.9,22.2z"/></svg>